# xmcd
#
# Track frame offsets:
#	150
#	14242
#	22972
#	32187
#	43915
#	53545
#	64550
#	76400
#	87632
#	97235
#
# Disc length: 1473 seconds
#
# Revision: 4
# Processed by: cddbd v1.5.2PL0 Copyright (c) Steve Scherf et al.
# Submitted via: audiograbber 1.83.01
#
DISCID=8305bf0a
DTITLE=Freddie Hart - The Best Of 
DYEAR=1900
DGENRE=Oldies
TTITLE0=First Time
TTITLE1=Bless Your Heart
TTITLE2=If You Can't Feel It (It Ain't There)
TTITLE3=Super Kind Of Woman
TTITLE4=My Hang Up Is You
TTITLE5=Got The All Overs For You (All Over Me)
TTITLE6=Trip To Heaven
TTITLE7=Easy Loving
TTITLE8=The Want-To's
TTITLE9=My Woman's Man
EXTD=
EXTT0=
EXTT1=
EXTT2=
EXTT3=
EXTT4=
EXTT5=
EXTT6=
EXTT7=
EXTT8=
EXTT9=
PLAYORDER=
